<?xml version="1.0" encoding="utf-8"?>
<!-- Generator: Adobe Illustrator 26.0.0, SVG Export Plug-In . SVG Version: 6.00 Build 0)  -->
<svg version="1.1" id="Calque_1" xmlns="http://www.w3.org/2000/svg" xmlns:xlink="http://www.w3.org/1999/xlink" x="0px" y="0px"
	 viewBox="0 0 512 512" style="enable-background:new 0 0 512 512;" xml:space="preserve">
<style type="text/css">
	.st0{fill:url(#SVGID_1_);}
</style>
<linearGradient id="SVGID_1_" gradientUnits="userSpaceOnUse" x1="-0.3274" y1="261.24" x2="512.1226" y2="261.24">
	<stop  offset="0" style="stop-color:#FF79DA"/>
	<stop  offset="1" style="stop-color:#9356DC"/>
</linearGradient>
<path class="st0" d="M244,84l11.1,12c87-105.7,262.3-43.4,256.9,94.9c0,41.5-17.2,81.2-47.6,109.5L283.7,469.1
	c-14.9,14.4-40.5,14.4-55.4,0c0,0-180.7-168.7-180.7-168.7C17.2,272.1,0,232.4,0,190.9C-8.7,64.6,156.9-8,244,84
	C243.1,84,244,84,244,84L244,84z M244,84l11.1,12c87-105.7,262.3-43.4,256.9,94.9c0,41.5-17.2,81.2-47.6,109.5L283.7,469.1
	c-14.9,14.4-40.5,14.4-55.4,0c0,0-180.7-168.7-180.7-168.7C17.2,272.1,0,232.4,0,190.9C-8.7,64.6,156.9-8,244,84
	C243.1,84,244,84,244,84L244,84z M255.1,163.9c0,0-45-46.8-45-46.8c-58.7-60.3-169.5-11-162.1,73.8c0,28.2,11.7,55.2,32.3,74.4
	c0,0,175.7,164,175.7,164s175.7-164,175.7-164c20.6-19.2,32.3-46.2,32.3-74.4c7.4-84.8-103.4-134.1-162.1-73.8
	C301.9,117.1,255.1,163.9,255.1,163.9z"/>
</svg>
