<?xml version="1.0" encoding="utf-8"?>
<!-- Generator: Adobe Illustrator 26.0.0, SVG Export Plug-In . SVG Version: 6.00 Build 0)  -->
<svg version="1.1" id="Calque_1" xmlns="http://www.w3.org/2000/svg" xmlns:xlink="http://www.w3.org/1999/xlink" x="0px" y="0px"
	 viewBox="0 0 27.5 15.7" style="enable-background:new 0 0 27.5 15.7;" xml:space="preserve">
<style type="text/css">
	.st0{fill:#FFFFFF;}
</style>
<g>
	<path class="st0" d="M7.9,4.4c1.9,0,3.3,0.4,4.2,1.2c0.9,0.8,1.4,1.8,1.4,3c0,0.4-0.1,0.9-0.2,1.4c-0.3,1.1-0.8,2.2-1.5,3
		c-0.7,0.9-1.6,1.5-2.7,2c-1.1,0.5-2.2,0.7-3.4,0.7c-1.9,0-3.4-0.4-4.3-1.2C0.5,13.8,0,12.7,0,11.5C0,11,0.1,10.5,0.2,10
		c0.3-1.1,0.8-2.1,1.5-2.9c0.8-0.9,1.7-1.5,2.8-2C5.5,4.7,6.7,4.4,7.9,4.4z M7.9,6.3c-0.3,0-0.6,0.3-0.9,0.8c-0.3,0.5-0.7,1.5-1.2,3
		c-0.4,1.5-0.7,2.5-0.7,3.1c0,0.3,0,0.5,0.1,0.6c0.1,0.1,0.2,0.1,0.4,0.1c0.3,0,0.6-0.2,0.9-0.8c0.3-0.5,0.7-1.6,1.2-3.1
		c0.4-1.4,0.7-2.3,0.7-3c0-0.3,0-0.5-0.1-0.6C8.2,6.3,8,6.3,7.9,6.3z"/>
	<path class="st0" d="M26.1,12.6c0,0.1,0,0.1,0,0.3c0,0.1,0,0.2,0.1,0.2c0.1,0.1,0.1,0.1,0.2,0.1c0.2,0,0.3-0.1,0.4-0.2
		c0.1-0.2,0.2-0.2,0.3-0.2c0.1,0,0.1,0,0.2,0.1c0,0.1,0.1,0.2,0.1,0.3c0,0.4-0.1,0.8-0.4,1.2c-0.3,0.4-0.7,0.7-1.2,0.9
		c-0.5,0.2-1.2,0.4-1.9,0.4c-0.9,0-1.7-0.2-2.2-0.6c-0.5-0.4-0.8-1-0.8-1.7c0-0.5,0.1-1.1,0.4-1.7l1.2-3c0.1-0.2,0.1-0.3,0.1-0.4
		c0-0.2-0.1-0.3-0.2-0.4c-0.1-0.1-0.3-0.2-0.4-0.2c-0.3,0-0.5,0.1-0.8,0.4c-0.3,0.2-0.5,0.6-0.7,1.2v0l-1.3,4.3
		c0,0.2-0.1,0.3-0.1,0.4c0,0.2,0,0.3,0.1,0.4c0.1,0.1,0.2,0.2,0.3,0.3c0.1,0.1,0.2,0.2,0.2,0.3c0,0.1,0,0.1,0,0.2
		c-0.1,0.2-0.2,0.3-0.4,0.4c-0.2,0.1-0.5,0.1-1,0.1h-4.8c-0.4,0-0.6-0.1-0.8-0.2c-0.2-0.1-0.2-0.3-0.2-0.5c0.1-0.2,0.2-0.3,0.4-0.4
		c0.2-0.1,0.4-0.2,0.5-0.4c0.1-0.2,0.3-0.4,0.4-0.7l3.2-10.5c0-0.1,0.1-0.2,0.1-0.3c0-0.2,0-0.3-0.1-0.4c-0.1-0.1-0.2-0.2-0.3-0.3
		c-0.1-0.1-0.2-0.2-0.3-0.3c-0.1-0.1-0.1-0.2,0-0.3c0.1-0.3,0.5-0.6,1.3-0.8C18.2,0.1,19,0,19.9,0c0.8,0,1.4,0.2,1.8,0.5
		c0.4,0.3,0.6,0.7,0.6,1.3c0,0.3,0,0.6-0.1,0.9L21,6.3c0.5-0.7,1.1-1.2,1.7-1.5c0.6-0.3,1.3-0.4,2-0.4c0.9,0,1.5,0.3,2.1,0.8
		c0.5,0.5,0.8,1.2,0.8,2c0,0.4-0.1,0.9-0.2,1.3L26.1,12.6z"/>
</g>
</svg>
